<?xml version="1.0" standalone="no"?>
 <!DOCTYPE svg PUBLIC "-//W3C//DTD SVG 1.1//EN" 
 "http://www.w3.org/Graphics/SVG/1.1/DTD/svg11.dtd"> 
<svg xmlns="http://www.w3.org/2000/svg" version="1.1" 
    width="2.4257cm" height="2.6797cm" viewBox="0 0 9550 10550 ">
<title>SVG Picture created as rf24_tiny44-brd.svg date 2019/01/07 19:55:22 </title>
  <desc>Picture generated by PCBNEW </desc>
<g style="fill:#000000; fill-opacity:1;stroke:#000000; stroke-opacity:1;
stroke-linecap:round; stroke-linejoin:round; "
 transform="translate(0 0) scale(1 1)">
</g>
<g style="fill:#000000; fill-opacity:0.0; 
stroke:#000000; stroke-width:-0.000393701; stroke-opacity:1; 
stroke-linecap:round; stroke-linejoin:round;">
</g>
<g style="fill:#000000; fill-opacity:0.0; 
stroke:#000000; stroke-width:669.291; stroke-opacity:1; 
stroke-linecap:round; stroke-linejoin:round;">
<path d="M8509 8749
L8509 8749
" />
</g>
<g style="fill:#000000; fill-opacity:0.0; 
stroke:#000000; stroke-width:629.921; stroke-opacity:1; 
stroke-linecap:round; stroke-linejoin:round;">
<path d="M7489 8749
L7529 8749
" />
</g>
<g style="fill:#000000; fill-opacity:0.0; 
stroke:#000000; stroke-width:590.551; stroke-opacity:1; 
stroke-linecap:round; stroke-linejoin:round;">
<path d="M8470 7749
L8548 7749
" />
</g>
<g style="fill:#000000; fill-opacity:0.0; 
stroke:#000000; stroke-width:629.921; stroke-opacity:1; 
stroke-linecap:round; stroke-linejoin:round;">
<path d="M7489 7749
L7529 7749
" />
<path d="M8489 6749
L8529 6749
" />
<path d="M7489 6749
L7529 6749
" />
</g>
<g style="fill:#000000; fill-opacity:0.0; 
stroke:#000000; stroke-width:669.291; stroke-opacity:1; 
stroke-linecap:round; stroke-linejoin:round;">
<path d="M8509 5749
L8509 5749
" />
</g>
<g style="fill:#000000; fill-opacity:0.0; 
stroke:#000000; stroke-width:0; stroke-opacity:1; 
stroke-linecap:round; stroke-linejoin:round;">
</g>
<g style="fill:#000000; fill-opacity:1.0; 
stroke:#000000; stroke-width:0; stroke-opacity:1; 
stroke-linecap:round; stroke-linejoin:round;">
<polyline style="fill-rule:evenodd;"
points="7174,6064
7174,5434
7844,5434
7844,6064
7174,6064
" /> 
<polyline style="fill-rule:evenodd;"
points="829,10004
829,9254
1329,9254
1329,10004
829,10004
" /> 
<polyline style="fill-rule:evenodd;"
points="2129,10004
2129,9254
2629,9254
2629,10004
2129,10004
" /> 
<polyline style="fill-rule:evenodd;"
points="3006,9984
3006,9275
3635,9275
3635,9984
3006,9984
" /> 
<polyline style="fill-rule:evenodd;"
points="4124,9984
4124,9275
4753,9275
4753,9984
4124,9984
" /> 
<polyline style="fill-rule:evenodd;"
points="5634,8829
6384,8829
6384,9329
5634,9329
5634,8829
" /> 
<polyline style="fill-rule:evenodd;"
points="5634,7529
6384,7529
6384,8029
5634,8029
5634,7529
" /> 
<polyline style="fill-rule:evenodd;"
points="3179,3894
3179,4644
2679,4644
2679,3894
3179,3894
" /> 
<polyline style="fill-rule:evenodd;"
points="1879,3894
1879,4644
1379,4644
1379,3894
1879,3894
" /> 
<polyline style="fill-rule:evenodd;"
points="7679,1579
8179,1579
8179,2579
7679,2579
7679,1579
" /> 
<polyline style="fill-rule:evenodd;"
points="6679,1579
7179,1579
7179,2579
6679,2579
6679,1579
" /> 
<polyline style="fill-rule:evenodd;"
points="5679,1579
6179,1579
6179,2579
5679,2579
5679,1579
" /> 
<polyline style="fill-rule:evenodd;"
points="4679,1579
5179,1579
5179,2579
4679,2579
4679,1579
" /> 
<polyline style="fill-rule:evenodd;"
points="3679,1579
4179,1579
4179,2579
3679,2579
3679,1579
" /> 
<polyline style="fill-rule:evenodd;"
points="2679,1579
3179,1579
3179,2579
2679,2579
2679,1579
" /> 
<polyline style="fill-rule:evenodd;"
points="7216,4833
7216,4125
7845,4125
7845,4833
7216,4833
" /> 
<polyline style="fill-rule:evenodd;"
points="6114,4833
6114,4125
6743,4125
6743,4833
6114,4833
" /> 
<polyline style="fill-rule:evenodd;"
points="6114,3883
6114,3175
6743,3175
6743,3883
6114,3883
" /> 
<polyline style="fill-rule:evenodd;"
points="7216,3883
7216,3175
7845,3175
7845,3883
7216,3883
" /> 
<polyline style="fill-rule:evenodd;"
points="2020,5559
2889,5559
2889,5799
2020,5799
2020,5559
" /> 
<polyline style="fill-rule:evenodd;"
points="2020,6059
2889,6059
2889,6299
2020,6299
2020,6059
" /> 
<polyline style="fill-rule:evenodd;"
points="2020,6559
2889,6559
2889,6799
2020,6799
2020,6559
" /> 
<polyline style="fill-rule:evenodd;"
points="2020,7059
2889,7059
2889,7299
2020,7299
2020,7059
" /> 
<polyline style="fill-rule:evenodd;"
points="2020,7559
2889,7559
2889,7799
2020,7799
2020,7559
" /> 
<polyline style="fill-rule:evenodd;"
points="2020,8059
2889,8059
2889,8299
2020,8299
2020,8059
" /> 
<polyline style="fill-rule:evenodd;"
points="2020,8559
2889,8559
2889,8799
2020,8799
2020,8559
" /> 
<polyline style="fill-rule:evenodd;"
points="4070,8559
4939,8559
4939,8799
4070,8799
4070,8559
" /> 
<polyline style="fill-rule:evenodd;"
points="4070,8059
4939,8059
4939,8299
4070,8299
4070,8059
" /> 
<polyline style="fill-rule:evenodd;"
points="4070,7559
4939,7559
4939,7799
4070,7799
4070,7559
" /> 
<polyline style="fill-rule:evenodd;"
points="4070,7059
4939,7059
4939,7299
4070,7299
4070,7059
" /> 
<polyline style="fill-rule:evenodd;"
points="4070,6559
4939,6559
4939,6799
4070,6799
4070,6559
" /> 
<polyline style="fill-rule:evenodd;"
points="4070,6059
4939,6059
4939,6299
4070,6299
4070,6059
" /> 
<polyline style="fill-rule:evenodd;"
points="4070,5559
4939,5559
4939,5799
4070,5799
4070,5559
" /> 
<polyline style="fill-rule:evenodd;"
points="5298,4960
4747,4960
4747,4567
5298,4567
5298,4960
" /> 
<polyline style="fill-rule:evenodd;"
points="5298,4212
4747,4212
4747,3819
5298,3819
5298,4212
" /> 
<polyline style="fill-rule:evenodd;"
points="4432,4586
3881,4586
3881,4193
4432,4193
4432,4586
" /> 
</g>
<g style="fill:#000000; fill-opacity:1.0; 
stroke:#000000; stroke-width:98.4252; stroke-opacity:1; 
stroke-linecap:round; stroke-linejoin:round;">
</g>
<g style="fill:#000000; fill-opacity:0.0; 
stroke:#000000; stroke-width:98.4252; stroke-opacity:1; 
stroke-linecap:round; stroke-linejoin:round;">
<path d="M5929 2813
L5929 2079
" />
<path d="M5022 3720
L5929 2813
" />
<path d="M5022 4015
L5022 3720
" />
<path d="M4504 5679
L4190 5679
" />
<path d="M3720 6149
L3669 6200
" />
<path d="M4190 5679
L3720 6149
" />
<path d="M4156 4094
L5429 2821
" />
<path d="M4156 4389
L4156 4094
" />
<path d="M5429 1599
L5749 1279
" />
<path d="M5429 2821
L5429 1599
" />
<path d="M7929 1829
L7929 2079
" />
<path d="M7379 1279
L7929 1829
" />
<path d="M3329 6540
L3720 6149
" />
<path d="M3329 8975
L3329 6540
" />
<path d="M2379 9629
L3320 9629
" />
<path d="M3320 8984
L3329 8975
" />
<path d="M3320 9629
L3320 8984
" />
<path d="M1079 9156
L479 8556
" />
<path d="M1079 9629
L1079 9156
" />
<path d="M479 8556
L479 2779
" />
<path d="M1979 1279
L5929 1279
" />
<path d="M479 2779
L1979 1279
" />
<path d="M5929 1279
L7379 1279
" />
<path d="M5749 1279
L5929 1279
" />
<path d="M7929 3130
L7530 3529
" />
<path d="M7929 2079
L7929 3130
" />
<path d="M7530 3529
L7530 4479
" />
<path d="M8509 5276
L8509 5749
" />
<path d="M7943 4479
L8509 5045
" />
<path d="M8509 5045
L8509 5276
" />
<path d="M7530 4479
L7943 4479
" />
<path d="M1629 4269
L1629 6949
" />
<path d="M1859 7179
L2454 7179
" />
<path d="M1629 6949
L1859 7179
" />
<path d="M1921 7679
L979 6737
" />
<path d="M2454 7679
L1921 7679
" />
<path d="M979 4064
L1864 3179
" />
<path d="M979 6737
L979 4064
" />
<path d="M4929 2329
L4929 2079
" />
<path d="M4079 3179
L4929 2329
" />
<path d="M1864 3179
L4079 3179
" />
<path d="M3929 2329
L3379 2879
" />
<path d="M3929 2079
L3929 2329
" />
<path d="M3379 2879
L1729 2879
" />
<path d="M1729 2879
L729 3879
" />
<path d="M729 3879
L729 7179
" />
<path d="M1729 8179
L2454 8179
" />
<path d="M729 7179
L1729 8179
" />
<path d="M1779 10179
L1879 10279
" />
<path d="M8029 7229
L7509 7749
" />
<path d="M1779 9040
L1779 10179
" />
<path d="M9129 7527
L8831 7229
" />
<path d="M2140 8679
L1779 9040
" />
<path d="M2454 8679
L2140 8679
" />
<path d="M1879 10279
L8029 10279
" />
<path d="M8029 10279
L9079 9229
" />
<path d="M9125 9183
L9018 9290
" />
<path d="M9129 9129
L9129 7534
" />
<path d="M8029 7229
L8831 7229
" />
<path d="M7929 9329
L8509 8749
" />
<path d="M7179 9329
L7329 9329
" />
<path d="M7329 9329
L7929 9329
" />
<path d="M7229 9329
L7329 9329
" />
<path d="M6629 9329
L7229 9329
" />
<path d="M6629 8579
L6629 9329
" />
<path d="M5179 8579
L6629 8579
" />
<path d="M5079 8679
L5179 8579
" />
<path d="M4504 8679
L5079 8679
" />
<path d="M5037 8179
L5107 8249
" />
<path d="M4504 8179
L5037 8179
" />
<path d="M8009 8249
L8509 7749
" />
<path d="M5107 8249
L8009 8249
" />
<path d="M6119 7679
L6299 7859
" />
<path d="M5889 7679
L6009 7799
" />
<path d="M4504 7679
L5889 7679
" />
<path d="M7079 7179
L7509 6749
" />
<path d="M4504 7179
L7079 7179
" />
<path d="M5037 6679
L5447 6269
" />
<path d="M4504 6679
L5037 6679
" />
<path d="M8029 6269
L8509 6749
" />
<path d="M5447 6269
L8029 6269
" />
<path d="M5827 9629
L6009 9447
" />
<path d="M6009 9447
L6009 9099
" />
<path d="M4438 9629
L5827 9629
" />
<path d="M2929 4742
L2929 4269
" />
<path d="M2769 5679
L2929 5519
" />
<path d="M2454 5679
L2769 5679
" />
<path d="M5022 5058
L4911 5169
" />
<path d="M4117 5229
L2929 5229
" />
<path d="M2929 5519
L2929 5229
" />
<path d="M4177 5169
L4117 5229
" />
<path d="M4911 5169
L4177 5169
" />
<path d="M2929 5229
L2929 4742
" />
<path d="M5022 5058
L5022 4763
" />
<path d="M5713 5749
L5022 5058
" />
<path d="M7509 5749
L5713 5749
" />
<path d="M6144 4763
L6428 4479
" />
<path d="M5022 4763
L6144 4763
" />
<path d="M6428 4479
L6428 3529
" />
</g>
<g style="fill:#FFFFFF; fill-opacity:0.0; 
stroke:#FFFFFF; stroke-width:98.4252; stroke-opacity:1; 
stroke-linecap:round; stroke-linejoin:round;">
</g>
<g style="fill:#FFFFFF; fill-opacity:1.0; 
stroke:#FFFFFF; stroke-width:0; stroke-opacity:1; 
stroke-linecap:round; stroke-linejoin:round;">
<circle cx="8509.53" cy="8749.53" r="196.85" /> 
</g>
<g style="fill:#FFFFFF; fill-opacity:1.0; 
stroke:#FFFFFF; stroke-width:39.3701; stroke-opacity:1; 
stroke-linecap:round; stroke-linejoin:round;">
</g>
<g style="fill:#FFFFFF; fill-opacity:1.0; 
stroke:#FFFFFF; stroke-width:0; stroke-opacity:1; 
stroke-linecap:round; stroke-linejoin:round;">
<circle cx="7509.53" cy="8749.53" r="196.85" /> 
</g>
<g style="fill:#FFFFFF; fill-opacity:1.0; 
stroke:#FFFFFF; stroke-width:39.3701; stroke-opacity:1; 
stroke-linecap:round; stroke-linejoin:round;">
</g>
<g style="fill:#FFFFFF; fill-opacity:1.0; 
stroke:#FFFFFF; stroke-width:0; stroke-opacity:1; 
stroke-linecap:round; stroke-linejoin:round;">
<circle cx="8509.53" cy="7749.53" r="196.85" /> 
</g>
<g style="fill:#FFFFFF; fill-opacity:1.0; 
stroke:#FFFFFF; stroke-width:39.3701; stroke-opacity:1; 
stroke-linecap:round; stroke-linejoin:round;">
</g>
<g style="fill:#FFFFFF; fill-opacity:1.0; 
stroke:#FFFFFF; stroke-width:0; stroke-opacity:1; 
stroke-linecap:round; stroke-linejoin:round;">
<circle cx="7509.53" cy="7749.53" r="196.85" /> 
</g>
<g style="fill:#FFFFFF; fill-opacity:1.0; 
stroke:#FFFFFF; stroke-width:39.3701; stroke-opacity:1; 
stroke-linecap:round; stroke-linejoin:round;">
</g>
<g style="fill:#FFFFFF; fill-opacity:1.0; 
stroke:#FFFFFF; stroke-width:0; stroke-opacity:1; 
stroke-linecap:round; stroke-linejoin:round;">
<circle cx="8509.53" cy="6749.53" r="196.85" /> 
</g>
<g style="fill:#FFFFFF; fill-opacity:1.0; 
stroke:#FFFFFF; stroke-width:39.3701; stroke-opacity:1; 
stroke-linecap:round; stroke-linejoin:round;">
</g>
<g style="fill:#FFFFFF; fill-opacity:1.0; 
stroke:#FFFFFF; stroke-width:0; stroke-opacity:1; 
stroke-linecap:round; stroke-linejoin:round;">
<circle cx="7509.53" cy="6749.53" r="196.85" /> 
</g>
<g style="fill:#FFFFFF; fill-opacity:1.0; 
stroke:#FFFFFF; stroke-width:39.3701; stroke-opacity:1; 
stroke-linecap:round; stroke-linejoin:round;">
</g>
<g style="fill:#FFFFFF; fill-opacity:1.0; 
stroke:#FFFFFF; stroke-width:0; stroke-opacity:1; 
stroke-linecap:round; stroke-linejoin:round;">
<circle cx="8509.53" cy="5749.53" r="196.85" /> 
</g>
<g style="fill:#FFFFFF; fill-opacity:1.0; 
stroke:#FFFFFF; stroke-width:39.3701; stroke-opacity:1; 
stroke-linecap:round; stroke-linejoin:round;">
</g>
<g style="fill:#FFFFFF; fill-opacity:1.0; 
stroke:#FFFFFF; stroke-width:0; stroke-opacity:1; 
stroke-linecap:round; stroke-linejoin:round;">
<circle cx="7509.53" cy="5749.53" r="196.85" /> 
</g>
<g style="fill:#FFFFFF; fill-opacity:1.0; 
stroke:#FFFFFF; stroke-width:39.3701; stroke-opacity:1; 
stroke-linecap:round; stroke-linejoin:round;">
</g>
<g style="fill:#000000; fill-opacity:1.0; 
stroke:#000000; stroke-width:39.3701; stroke-opacity:1; 
stroke-linecap:round; stroke-linejoin:round;">
</g> 
</svg>
