<?xml version="1.0" encoding="UTF-8" standalone="no"?>
<svg
   xmlns:dc="http://purl.org/dc/elements/1.1/"
   xmlns:cc="http://creativecommons.org/ns#"
   xmlns:rdf="http://www.w3.org/1999/02/22-rdf-syntax-ns#"
   xmlns:svg="http://www.w3.org/2000/svg"
   xmlns="http://www.w3.org/2000/svg"
   xmlns:sodipodi="http://sodipodi.sourceforge.net/DTD/sodipodi-0.dtd"
   xmlns:inkscape="http://www.inkscape.org/namespaces/inkscape"
   width="600mm"
   height="300mm"
   id="svg2"
   version="1.1"
   inkscape:version="0.91 r13725"
   sodipodi:docname="cardboard_frame.svg">
  <metadata
     id="metadata26">
    <rdf:RDF>
      <cc:Work
         rdf:about="">
        <dc:format>image/svg+xml</dc:format>
        <dc:type
           rdf:resource="http://purl.org/dc/dcmitype/StillImage" />
        <dc:title></dc:title>
      </cc:Work>
    </rdf:RDF>
  </metadata>
  <sodipodi:namedview
     pagecolor="#ffffff"
     bordercolor="#666666"
     borderopacity="1"
     objecttolerance="10"
     gridtolerance="10"
     guidetolerance="10"
     inkscape:pageopacity="0"
     inkscape:pageshadow="2"
     inkscape:window-width="1440"
     inkscape:window-height="817"
     id="namedview24"
     showgrid="false"
     units="mm"
     inkscape:zoom="0.55565242"
     inkscape:cx="782.50915"
     inkscape:cy="730.28006"
     inkscape:window-x="1181"
     inkscape:window-y="1081"
     inkscape:window-maximized="1"
     inkscape:current-layer="g20" />
  <desc
     id="desc4">/Users/roberthart/Desktop/SCFAB/SC_lab/Tools/2D_design/Fusion_360/example_from_projection.dxf - scale = 1.000000, origin = (0.000000, 0.000000), auto = True</desc>
  <defs
     id="defs6">
    <marker
       id="DistanceX"
       orient="auto"
       refX="0"
       refY="0"
       style="overflow:visible">
      <path
         d="M 3,-3 -3,3 M 0,-5 0,5"
         style="stroke:#000000;stroke-width:0.5"
         id="path9"
         inkscape:connector-curvature="0" />
    </marker>
    <pattern
       height="8"
       id="Hatch"
       patternUnits="userSpaceOnUse"
       width="8"
       x="0"
       y="0">
      <path
         d="M8 4 l-4,4"
         linecap="square"
         stroke="#000000"
         stroke-width="0.25"
         id="path12" />
      <path
         d="M6 2 l-4,4"
         linecap="square"
         stroke="#000000"
         stroke-width="0.25"
         id="path14" />
      <path
         d="M4 0 l-4,4"
         linecap="square"
         stroke="#000000"
         stroke-width="0.25"
         id="path16" />
    </pattern>
    <symbol
       id="*MODEL_SPACE" />
    <symbol
       id="*PAPER_SPACE" />
    <marker
       style="overflow:visible"
       refY="0"
       refX="0"
       orient="auto"
       id="DistanceX-8">
      <path
         id="path4212"
         style="stroke:#000000;stroke-width:0.5"
         d="M 3,-3 -3,3 M 0,-5 0,5"
         inkscape:connector-curvature="0" />
    </marker>
    <pattern
       y="0"
       x="0"
       width="8"
       patternUnits="userSpaceOnUse"
       id="Hatch-9"
       height="8">
      <path
         id="path4215"
         stroke-width="0.25"
         stroke="#000000"
         linecap="square"
         d="M8 4 l-4,4" />
      <path
         id="path4217"
         stroke-width="0.25"
         stroke="#000000"
         linecap="square"
         d="M6 2 l-4,4" />
      <path
         id="path4219"
         stroke-width="0.25"
         stroke="#000000"
         linecap="square"
         d="M4 0 l-4,4" />
    </pattern>
    <symbol
       id="*MODEL_SPACE-8" />
    <symbol
       id="*PAPER_SPACE-5" />
    <marker
       style="overflow:visible"
       refY="0.0"
       refX="0.0"
       orient="auto"
       id="DistanceX-0">
      <path
         id="path4409"
         style="stroke:#000000; stroke-width:0.5"
         d="M 3,-3 L -3,3 M 0,-5 L  0,5" />
    </marker>
    <pattern
       y="0"
       x="0"
       width="8"
       patternUnits="userSpaceOnUse"
       id="Hatch-96"
       height="8">
      <path
         id="path4412"
         stroke-width="0.25"
         stroke="#000000"
         linecap="square"
         d="M8 4 l-4,4" />
      <path
         id="path4414"
         stroke-width="0.25"
         stroke="#000000"
         linecap="square"
         d="M6 2 l-4,4" />
      <path
         id="path4416"
         stroke-width="0.25"
         stroke="#000000"
         linecap="square"
         d="M4 0 l-4,4" />
    </pattern>
    <symbol
       id="*MODEL_SPACE-4" />
    <symbol
       id="*PAPER_SPACE-4" />
    <marker
       style="overflow:visible"
       refY="0.0"
       refX="0.0"
       orient="auto"
       id="DistanceX-3">
      <path
         id="path5327"
         style="stroke:#000000; stroke-width:0.5"
         d="M 3,-3 L -3,3 M 0,-5 L  0,5" />
    </marker>
    <pattern
       y="0"
       x="0"
       width="8"
       patternUnits="userSpaceOnUse"
       id="Hatch-0"
       height="8">
      <path
         id="path5330"
         stroke-width="0.25"
         stroke="#000000"
         linecap="square"
         d="M8 4 l-4,4" />
      <path
         id="path5332"
         stroke-width="0.25"
         stroke="#000000"
         linecap="square"
         d="M6 2 l-4,4" />
      <path
         id="path5334"
         stroke-width="0.25"
         stroke="#000000"
         linecap="square"
         d="M4 0 l-4,4" />
    </pattern>
    <symbol
       id="*MODEL_SPACE-7" />
    <symbol
       id="*PAPER_SPACE-40" />
    <marker
       style="overflow:visible"
       refY="0.0"
       refX="0.0"
       orient="auto"
       id="DistanceX-7">
      <path
         id="path5511"
         style="stroke:#000000; stroke-width:0.5"
         d="M 3,-3 L -3,3 M 0,-5 L  0,5" />
    </marker>
    <pattern
       y="0"
       x="0"
       width="8"
       patternUnits="userSpaceOnUse"
       id="Hatch-7"
       height="8">
      <path
         id="path5514"
         stroke-width="0.25"
         stroke="#000000"
         linecap="square"
         d="M8 4 l-4,4" />
      <path
         id="path5516"
         stroke-width="0.25"
         stroke="#000000"
         linecap="square"
         d="M6 2 l-4,4" />
      <path
         id="path5518"
         stroke-width="0.25"
         stroke="#000000"
         linecap="square"
         d="M4 0 l-4,4" />
    </pattern>
    <symbol
       id="*MODEL_SPACE-70" />
    <symbol
       id="*PAPER_SPACE-0" />
  </defs>
  <g
     inkscape:groupmode="layer"
     inkscape:label="0"
     id="g20"
     transform="translate(0,10.629899)">
    <g
       id="g4223"
       inkscape:label="0"
       transform="matrix(1,0,0,-1,562.28944,1249.6009)">
      <path
         id="path4225"
         style="fill:none;stroke:#000000"
         d="m 241.29921,1087.2761 0,53.1496 11.69292,0 0,-53.1496 -11.69292,0 z"
         inkscape:connector-curvature="0" />
      <path
         id="path4227"
         style="fill:none;stroke:#000000"
         d="m -430.15748,1016.41 11.69291,0 0,-53.14965 -11.69291,0 0,53.14965 z"
         inkscape:connector-curvature="0" />
      <path
         id="path4229"
         style="fill:none;stroke:#000000"
         d="m -294.44882,1016.41 0,-53.14965 -11.69291,0 0,53.14965 11.69291,0 z"
         inkscape:connector-curvature="0" />
      <path
         id="path4231"
         style="fill:none;stroke:#000000"
         d="m -430.15748,1087.2761 0,53.1496 11.69291,0 0,-53.1496 -11.69291,0 z"
         inkscape:connector-curvature="0" />
      <path
         id="path4233"
         style="fill:none;stroke:#000000"
         d="m 283.46457,1016.41 0,-53.14965 -11.69292,0 0,53.14965 11.69292,0 z"
         inkscape:connector-curvature="0" />
      <path
         id="path4235"
         style="fill:none;stroke:#000000"
         d="m 241.29921,963.26035 0,53.14965 11.69292,0 0,-53.14965 -11.69292,0 z"
         inkscape:connector-curvature="0" />
      <path
         id="path4237"
         style="fill:none;stroke:#000000"
         d="m -294.44882,1087.2761 -11.69291,0 0,53.1496 11.69291,0 0,-53.1496 z"
         inkscape:connector-curvature="0" />
      <path
         id="path4239"
         style="fill:none;stroke:#000000"
         d="m 128.97638,1016.41 0,-53.14965 -11.69291,0 0,53.14965 11.69291,0 z"
         inkscape:connector-curvature="0" />
      <path
         id="path4241"
         style="fill:none;stroke:#000000"
         d="m 271.77165,1140.4257 11.69292,0 0,-53.1496 -11.69292,0 0,53.1496 z"
         inkscape:connector-curvature="0" />
      <path
         id="path4243"
         style="fill:none;stroke:#000000"
         d="m -460.62992,1016.41 11.69291,0 0,-53.14965 -11.69291,0 0,53.14965 z"
         inkscape:connector-curvature="0" />
      <path
         id="path4245"
         style="fill:none;stroke:#000000"
         d="m 128.97638,1087.2761 -11.69291,0 0,53.1496 11.69291,0 0,-53.1496 z"
         inkscape:connector-curvature="0" />
      <path
         id="path4247"
         style="fill:none;stroke:#000000"
         d="m -460.62992,1140.4257 11.69291,0 0,-53.1496 -11.69291,0 0,53.1496 z"
         inkscape:connector-curvature="0" />
      <path
         id="path4249"
         style="fill:none;stroke:#000000"
         d="m 354.33071,1194.0945 -885.82677,0 0,-283.46458 885.82677,0 0,283.46458 z"
         inkscape:connector-curvature="0" />
    </g>
    <g
       transform="matrix(1,0,0,-1,558.5143,1561.4864)"
       inkscape:label="0"
       id="g4355">
      <path
         inkscape:connector-curvature="0"
         d="m 241.29921,1087.2761 0,53.1496 11.69292,0 0,-53.1496 -11.69292,0 z"
         style="fill:none;stroke:#000000"
         id="path4357" />
      <path
         inkscape:connector-curvature="0"
         d="m -430.15748,1016.41 11.69291,0 0,-53.14965 -11.69291,0 0,53.14965 z"
         style="fill:none;stroke:#000000"
         id="path4359" />
      <path
         inkscape:connector-curvature="0"
         d="m -294.44882,1016.41 0,-53.14965 -11.69291,0 0,53.14965 11.69291,0 z"
         style="fill:none;stroke:#000000"
         id="path4361" />
      <path
         inkscape:connector-curvature="0"
         d="m -430.15748,1087.2761 0,53.1496 11.69291,0 0,-53.1496 -11.69291,0 z"
         style="fill:none;stroke:#000000"
         id="path4363" />
      <path
         inkscape:connector-curvature="0"
         d="m 283.46457,1016.41 0,-53.14965 -11.69292,0 0,53.14965 11.69292,0 z"
         style="fill:none;stroke:#000000"
         id="path4365" />
      <path
         inkscape:connector-curvature="0"
         d="m 241.29921,963.26035 0,53.14965 11.69292,0 0,-53.14965 -11.69292,0 z"
         style="fill:none;stroke:#000000"
         id="path4367" />
      <path
         inkscape:connector-curvature="0"
         d="m -294.44882,1087.2761 -11.69291,0 0,53.1496 11.69291,0 0,-53.1496 z"
         style="fill:none;stroke:#000000"
         id="path4369" />
      <path
         inkscape:connector-curvature="0"
         d="m 128.97638,1016.41 0,-53.14965 -11.69291,0 0,53.14965 11.69291,0 z"
         style="fill:none;stroke:#000000"
         id="path4371" />
      <path
         inkscape:connector-curvature="0"
         d="m 271.77165,1140.4257 11.69292,0 0,-53.1496 -11.69292,0 0,53.1496 z"
         style="fill:none;stroke:#000000"
         id="path4373" />
      <path
         inkscape:connector-curvature="0"
         d="m -460.62992,1016.41 11.69291,0 0,-53.14965 -11.69291,0 0,53.14965 z"
         style="fill:none;stroke:#000000"
         id="path4375" />
      <path
         inkscape:connector-curvature="0"
         d="m 128.97638,1087.2761 -11.69291,0 0,53.1496 11.69291,0 0,-53.1496 z"
         style="fill:none;stroke:#000000"
         id="path4377" />
      <path
         inkscape:connector-curvature="0"
         d="m -460.62992,1140.4257 11.69291,0 0,-53.1496 -11.69291,0 0,53.1496 z"
         style="fill:none;stroke:#000000"
         id="path4379" />
      <path
         inkscape:connector-curvature="0"
         d="m 354.33071,1194.0945 -885.82677,0 0,-283.46458 885.82677,0 0,283.46458 z"
         style="fill:none;stroke:#000000"
         id="path4381" />
    </g>
    <path
       inkscape:connector-curvature="0"
       d="m 1188.8938,205.12148 a 11.161417,11.161417 0 1 0 -22.3228,0 11.161417,11.161417 0 1 0 22.3228,0 z"
       style="fill:none;stroke:#000000"
       id="path4422" />
    <path
       inkscape:connector-curvature="0"
       d="m 1353.0446,275.98758 a 70.866142,70.866142 0 0 1 -70.8661,70.8662 l -286.57208,0 0,-53.6688 -30.47244,0.5192 0,-53.6688 30.47244,0 0,-70.8661 -30.47244,0 0,-53.14965 30.47244,0 0,-52.63043 286.57208,0 a 70.866142,70.866142 0 0 1 70.8661,70.86614 l 0,141.73224 z"
       style="fill:none;stroke:#000000"
       id="path4424" />
    <path
       id="path4587"
       style="fill:none;stroke:#000000"
       d="m 1616.9733,209.58064 a 11.161417,11.161417 0 1 0 -22.3228,0 11.161417,11.161417 0 1 0 22.3228,0 z"
       inkscape:connector-curvature="0" />
    <path
       id="path4589"
       style="fill:none;stroke:#000000"
       d="m 1781.1241,280.44674 a 70.866142,70.866142 0 0 1 -70.8661,70.8662 l -286.5721,0 0,-53.6688 -30.4724,0.5192 0,-53.6688 30.4724,0 0,-70.8661 -30.4724,0 0,-53.14965 30.4724,0 0,-52.63043 286.5721,0 a 70.866142,70.866142 0 0 1 70.8661,70.86614 l 0,141.73224 z"
       inkscape:connector-curvature="0" />
    <path
       id="path4609"
       style="fill:none;stroke:#000000"
       d="m 1423.6859,173.62844 0,70.8661"
       inkscape:connector-curvature="0" />
    <path
       inkscape:connector-curvature="0"
       d="m 1357.5038,588.1289 a 70.866142,70.866142 0 0 1 -70.8662,70.8662 l -286.572,0 0,-53.6688 -30.47247,0.5192 0,-53.6688 30.47247,0 0,-70.8661 -30.47247,0 0,-53.14965 30.47247,0 0,-52.63043 286.572,0 a 70.866142,70.866142 0 0 1 70.8662,70.86614 l 0,141.73224 z"
       style="fill:none;stroke:#000000"
       id="path4679" />
    <path
       inkscape:connector-curvature="0"
       d="m 1203.4514,517.2628 a 21.259845,21.259845 0 1 0 -42.5197,0 21.259845,21.259845 0 0 0 42.5197,0 z"
       style="fill:none;stroke:#000000"
       id="path4711" />
    <path
       id="path4769"
       style="fill:none;stroke:#000000"
       d="m 1785.5833,588.1289 a 70.866142,70.866142 0 0 1 -70.8661,70.8662 l -286.5721,0 0,-53.6688 -30.4724,0.5192 0,-53.6688 30.4724,0 0,-70.8661 -30.4724,0 0,-53.14965 30.4724,0 0,-52.63043 286.5721,0 a 70.866142,70.866142 0 0 1 70.8661,70.86614 l 0,141.73224 z"
       inkscape:connector-curvature="0" />
    <path
       id="path4801"
       style="fill:none;stroke:#000000"
       d="m 1631.531,517.2628 a 21.259845,21.259845 0 1 0 -42.5197,0 21.259845,21.259845 0 0 0 42.5197,0 z"
       inkscape:connector-curvature="0" />
    <path
       inkscape:connector-curvature="0"
       d="m 425.53899,913.64771 a 70.866142,70.866142 0 0 1 -70.86614,70.8662 l -286.572055,0 0,-53.6688 -30.472441,0.5192 0,-53.6688 30.472441,0 0,-70.8661 -30.472441,0 0,-53.14965 30.472441,0 0,-52.63043 286.572055,0 a 70.866142,70.866142 0 0 1 70.86614,70.86614 l 0,141.73224 z"
       style="fill:none;stroke:#000000"
       id="path4859" />
    <path
       inkscape:connector-curvature="0"
       d="m 264.4,842.78161 a 14.173229,14.173229 0 1 0 -28.34645,0 14.173229,14.173229 0 1 0 28.34645,0 z"
       style="fill:none;stroke:#000000"
       id="path4861" />
    <path
       id="path4949"
       style="fill:none;stroke:#000000"
       d="m 849.15936,909.18855 a 70.866142,70.866142 0 0 1 -70.86614,70.8662 l -286.57206,0 0,-53.6688 -30.47244,0.5192 0,-53.6688 30.47244,0 0,-70.8661 -30.47244,0 0,-53.14965 30.47244,0 0,-52.63043 286.57206,0 a 70.866142,70.866142 0 0 1 70.86614,70.86614 l 0,141.73224 z"
       inkscape:connector-curvature="0" />
    <circle
       style="opacity:1;fill:none;fill-opacity:1;fill-rule:nonzero;stroke:#000000;stroke-width:1.46482444;stroke-miterlimit:4;stroke-dasharray:none;stroke-opacity:1"
       id="path5255"
       cx="673.60632"
       cy="838.19525"
       r="34.700657" />
    <path
       id="path5358"
       style="fill:none;stroke:#000000"
       d="m 893.35212,804.33389 0,70.8661 m 0,0 0,53.1496 m 0,0 0,53.6688 m 0,0 286.57208,0 m 0,0 a 70.866142,70.866142 0 0 0 70.8661,-70.8662 m 0,0 0,-141.73224 m 0,0 a 70.866142,70.866142 0 0 0 -70.8661,-70.86614 m 0,0 -286.57208,0 m 0,0 0,52.63043 m 0,0 0,53.14965" />
    <path
       inkscape:connector-curvature="0"
       d="m 1086.108,840.28609 a 10.629925,10.629925 0 1 0 -21.2598,0 10.629925,10.629925 0 0 0 21.2598,0 z"
       style="fill:none;stroke:#000000"
       id="path5360" />
    <path
       id="path5436"
       style="color:#000000;font-style:normal;font-variant:normal;font-weight:normal;font-stretch:normal;font-size:medium;line-height:normal;font-family:sans-serif;text-indent:0;text-align:start;text-decoration:none;text-decoration-line:none;text-decoration-style:solid;text-decoration-color:#000000;letter-spacing:normal;word-spacing:normal;text-transform:none;direction:ltr;block-progression:tb;writing-mode:lr-tb;baseline-shift:baseline;text-anchor:start;white-space:normal;clip-rule:nonzero;display:inline;overflow:visible;visibility:visible;opacity:1;isolation:auto;mix-blend-mode:normal;color-interpolation:sRGB;color-interpolation-filters:linearRGB;solid-color:#000000;solid-opacity:1;fill:#000000;fill-opacity:1;fill-rule:nonzero;stroke:none;stroke-width:1;stroke-linecap:butt;stroke-linejoin:miter;stroke-miterlimit:4;stroke-dasharray:none;stroke-dashoffset:0;stroke-opacity:1;color-rendering:auto;image-rendering:auto;shape-rendering:auto;text-rendering:auto;enable-background:accumulate"
       d="m 1303.0957,808.79297 0,70.86523 1,0 0,-70.86523 -1,0 z m 0,70.86523 0,53.15039 1,0 0,-53.15039 -1,0 z m 0,53.15039 0,53.66993 1,0 0,-53.66993 -1,0 z m 0.5,53.16993 0,1 286.5723,0 0,-1 -286.5723,0 z m 356.9375,-70.36719 c 0,38.86807 -31.4972,70.36716 -70.3652,70.36719 l 0,1 c 39.4085,-3e-5 71.3652,-31.95868 71.3652,-71.36719 l -1,0 z m 0,-141.73242 0,141.73242 1,0 0,-141.73242 -1,0 z m -70.3652,-71.36524 0,1 c 38.868,2e-5 70.3652,31.49718 70.3652,70.36524 l 1,0 c 0,-39.4085 -31.9567,-71.36521 -71.3652,-71.36524 z m -286.5723,0 0,1 286.5723,0 0,-1 -286.5723,0 z m -0.5,0.5 0,52.62891 1,0 0,-52.62891 -1,0 z m 0,52.62891 0,53.15039 1,0 0,-53.15039 -1,0 z" />
    <circle
       r="34.700657"
       cy="844.6391"
       cx="1485.9381"
       id="circle5457"
       style="opacity:1;fill:none;fill-opacity:1;fill-rule:nonzero;stroke:#000000;stroke-width:1.46482444;stroke-miterlimit:4;stroke-dasharray:none;stroke-opacity:1" />
    <path
       inkscape:connector-curvature="0"
       d="m 2086.267,168.96479 a 141.73231,141.73231 0 1 0 -283.4646,0 141.73231,141.73231 0 1 0 283.4646,0 z"
       style="fill:none;stroke:#000000"
       id="path5524" />
    <path
       inkscape:connector-curvature="0"
       d="m 1853.6247,888.23022 a 70.866145,70.866145 0 1 0 -141.7323,0 70.866145,70.866145 0 0 0 141.7323,0 z"
       style="fill:none;stroke:#000000"
       id="path5526" />
    <path
       inkscape:connector-curvature="0"
       d="m 1955.1646,168.96479 a 10.629921,10.629921 0 1 0 -21.2598,0 10.629921,10.629921 0 1 0 21.2598,0 z"
       style="fill:none;stroke:#000000"
       id="path5528" />
    <path
       inkscape:connector-curvature="0"
       d="m 1793.3884,888.23022 a 10.629925,10.629925 0 1 0 -21.2598,0 10.629925,10.629925 0 0 0 21.2598,0 z"
       style="fill:none;stroke:#000000"
       id="path5530" />
    <path
       id="path5583"
       style="fill:none;stroke:#000000"
       d="m 2086.267,473.18582 a 141.73231,141.73231 0 1 0 -283.4646,0 141.73231,141.73231 0 1 0 283.4646,0 z"
       inkscape:connector-curvature="0" />
    <path
       id="path5585"
       style="fill:none;stroke:#000000"
       d="m 1955.1646,473.18582 a 10.629921,10.629921 0 1 0 -21.2598,0 10.629921,10.629921 0 1 0 21.2598,0 z"
       inkscape:connector-curvature="0" />
    <path
       id="path5587"
       style="fill:none;stroke:#000000"
       d="m 1929.68,714.38963 a 70.86615,70.86615 0 1 0 -141.7323,0 70.86615,70.86615 0 0 0 141.7323,0 z"
       inkscape:connector-curvature="0" />
    <path
       id="path5589"
       style="fill:none;stroke:#000000"
       d="m 1869.4437,714.38963 a 10.629925,10.629925 0 1 0 -21.2598,0 10.629925,10.629925 0 0 0 21.2598,0 z"
       inkscape:connector-curvature="0" />
  </g>
</svg>
