<?xml version="1.0" encoding="UTF-8" standalone="no"?>
<svg
   viewBox="0 0 793.7007874015749 1122.5196850393702"
   width="793.7007874015749"
   height="1122.5196850393702"
   version="1.1"
   id="svg126"
   xmlns="http://www.w3.org/2000/svg"
   xmlns:svg="http://www.w3.org/2000/svg">
  <desc
     id="desc2">13_key_c2_cutout_14.5.dxf - scale = 1.000000, origin = (0.000000, 0.000000), method = manual</desc>
  <defs
     id="defs16">
    <marker
       id="DistanceX"
       orient="auto"
       refX="0.0"
       refY="0.0"
       style="overflow:visible">
      <path
         d="M 3,-3 L -3,3 M 0,-5 L  0,5"
         style="stroke:#000000; stroke-width:0.5"
         id="path4" />
    </marker>
    <pattern
       id="Hatch"
       patternUnits="userSpaceOnUse"
       width="8"
       height="8"
       x="0"
       y="0">
      <path
         d="M8 4 l-4,4"
         stroke="#000000"
         stroke-width="0.25"
         linecap="square"
         id="path7" />
      <path
         d="M6 2 l-4,4"
         stroke="#000000"
         stroke-width="0.25"
         linecap="square"
         id="path9" />
      <path
         d="M4 0 l-4,4"
         stroke="#000000"
         stroke-width="0.25"
         linecap="square"
         id="path11" />
    </pattern>
    <symbol
       id="*MODEL_SPACE" />
    <symbol
       id="*PAPER_SPACE" />
  </defs>
  <g
     id="g18" />
  <g
     id="g20" />
  <g
     id="g22" />
  <g
     id="g24" />
  <g
     id="g26" />
  <g
     id="g28" />
  <g
     id="g30" />
  <g
     id="g32" />
  <g
     id="g34" />
  <g
     id="g36" />
  <g
     id="g38" />
  <g
     id="g40" />
  <g
     id="g42" />
  <g
     id="g44" />
  <g
     id="g46" />
  <g
     id="g48" />
  <g
     id="g50" />
  <g
     id="g52" />
  <g
     id="g54" />
  <g
     id="g56" />
  <g
     id="g58" />
  <g
     id="g60" />
  <g
     id="g62" />
  <g
     id="g64" />
  <g
     id="g66" />
  <g
     id="g68" />
  <g
     id="g70" />
  <g
     id="g72" />
  <g
     id="g74" />
  <g
     id="g76" />
  <g
     id="g106">
    <path
       d="m 371.08174,676.03908 a 5.669291,5.669291 0 0 1 -0.72755,0.0469"
       style="fill:none;stroke:#000000"
       id="path78" />
    <path
       style="fill:none;stroke:#000000"
       d="m 302.32274,676.08698 h 68.031"
       id="path80" />
    <path
       d="m 302.3227,676.08595 a 5.669291,5.669291 0 0 1 -5.6693,-5.66929"
       style="fill:none;stroke:#000000"
       id="path82" />
    <path
       style="fill:none;stroke:#000000"
       d="m 296.65374,615.23698 v 55.18"
       id="path84" />
    <path
       d="m 296.6534,615.23556 a 5.669291,5.669291 0 0 1 5.6693,-5.66929"
       style="fill:none;stroke:#000000"
       id="path86" />
    <path
       style="fill:none;stroke:#000000"
       d="m 302.32274,609.56698 h 68.031"
       id="path88" />
    <path
       d="m 370.35419,609.56627 a 5.669291,5.669291 0 0 1 5.66929,5.66929"
       style="fill:none;stroke:#000000"
       id="path90" />
    <path
       style="fill:none;stroke:#000000"
       d="m 376.02374,615.23698 v 23.43"
       id="path92" />
    <path
       style="fill:none;stroke:#000000"
       d="m 376.02374,638.66698 h 88.819"
       id="path94" />
    <path
       d="m 464.84238,638.66863 a 5.669291,5.669291 0 0 1 5.66929,5.66929"
       style="fill:none;stroke:#000000"
       id="path96" />
    <path
       style="fill:none;stroke:#000000"
       d="m 470.51174,670.41698 v -26.08"
       id="path98" />
    <path
       d="m 470.51167,670.41666 a 5.669291,5.669291 0 0 1 -5.66929,5.66929"
       style="fill:none;stroke:#000000"
       id="path100" />
    <path
       style="fill:none;stroke:#000000"
       d="m 371.08174,676.08698 h 93.761"
       id="path102" />
    <path
       style="fill:none;stroke:#000000"
       d="m 371.08174,676.08698 v -0.05"
       id="path104" />
  </g>
  <g
     id="g108" />
  <g
     id="g110" />
  <g
     id="g112" />
  <g
     id="g114" />
  <g
     id="g116" />
  <g
     id="g118" />
  <g
     id="g120" />
  <g
     id="g122" />
  <g
     id="g124" />
</svg>
