<?xml version="1.0" encoding="UTF-8" standalone="no"?>
<svg
   viewBox="0 0 793.7007874015749 1122.5196850393702"
   width="793.7007874015749"
   height="1122.5196850393702"
   version="1.1"
   id="svg126"
   xmlns="http://www.w3.org/2000/svg"
   xmlns:svg="http://www.w3.org/2000/svg">
  <desc
     id="desc2">37_key_c4_cutout_14.5.dxf - scale = 1.000000, origin = (0.000000, 0.000000), method = manual</desc>
  <defs
     id="defs16">
    <marker
       id="DistanceX"
       orient="auto"
       refX="0.0"
       refY="0.0"
       style="overflow:visible">
      <path
         d="M 3,-3 L -3,3 M 0,-5 L  0,5"
         style="stroke:#000000; stroke-width:0.5"
         id="path4" />
    </marker>
    <pattern
       id="Hatch"
       patternUnits="userSpaceOnUse"
       width="8"
       height="8"
       x="0"
       y="0">
      <path
         d="M8 4 l-4,4"
         stroke="#000000"
         stroke-width="0.25"
         linecap="square"
         id="path7" />
      <path
         d="M6 2 l-4,4"
         stroke="#000000"
         stroke-width="0.25"
         linecap="square"
         id="path9" />
      <path
         d="M4 0 l-4,4"
         stroke="#000000"
         stroke-width="0.25"
         linecap="square"
         id="path11" />
    </pattern>
    <symbol
       id="*MODEL_SPACE" />
    <symbol
       id="*PAPER_SPACE" />
  </defs>
  <g
     id="g18" />
  <g
     id="g20" />
  <g
     id="g22" />
  <g
     id="g24" />
  <g
     id="g26" />
  <g
     id="g28" />
  <g
     id="g30" />
  <g
     id="g32" />
  <g
     id="g34" />
  <g
     id="g36" />
  <g
     id="g38" />
  <g
     id="g40" />
  <g
     id="g42" />
  <g
     id="g44" />
  <g
     id="g46" />
  <g
     id="g48" />
  <g
     id="g50" />
  <g
     id="g52" />
  <g
     id="g54" />
  <g
     id="g56" />
  <g
     id="g58" />
  <g
     id="g60" />
  <g
     id="g62" />
  <g
     id="g64" />
  <g
     id="g66" />
  <g
     id="g68" />
  <g
     id="g70" />
  <g
     id="g72" />
  <g
     id="g74" />
  <g
     id="g76" />
  <g
     id="g106">
    <path
       style="fill:none;stroke:#000000"
       d="m 328.8194,711.55842 h 68.031"
       id="path78" />
    <path
       d="m 328.81936,711.56047 a 5.669291,5.669291 0 0 1 -5.66929,-5.66929"
       style="fill:none;stroke:#000000"
       id="path80" />
    <path
       style="fill:none;stroke:#000000"
       d="m 323.1504,650.70842 v 55.18"
       id="path82" />
    <path
       d="m 323.15007,650.71007 a 5.669291,5.669291 0 0 1 5.66929,-5.66929"
       style="fill:none;stroke:#000000"
       id="path84" />
    <path
       style="fill:none;stroke:#000000"
       d="m 328.8194,645.03842 h 68.031"
       id="path86" />
    <path
       d="m 396.85086,645.04078 a 5.669291,5.669291 0 0 1 5.66929,5.66929"
       style="fill:none;stroke:#000000"
       id="path88" />
    <path
       style="fill:none;stroke:#000000"
       d="m 402.5204,650.70842 v 24.57"
       id="path90" />
    <path
       style="fill:none;stroke:#000000"
       d="m 402.5204,675.27842 h 5.669"
       id="path92" />
    <path
       d="m 408.18944,675.277 a 5.669291,5.669291 0 0 1 5.66929,5.66929"
       style="fill:none;stroke:#000000"
       id="path94" />
    <path
       style="fill:none;stroke:#000000"
       d="m 413.8584,705.88842 v -24.94"
       id="path96" />
    <path
       d="m 413.85873,705.89118 a 5.669291,5.669291 0 0 1 -5.66929,5.66929"
       style="fill:none;stroke:#000000"
       id="path98" />
    <path
       style="fill:none;stroke:#000000"
       d="m 397.5784,711.55842 h 10.611"
       id="path100" />
    <path
       style="fill:none;stroke:#000000"
       d="m 397.5784,711.55842 v -0.04"
       id="path102" />
    <path
       d="m 397.57841,711.51359 a 5.669291,5.669291 0 0 1 -0.72755,0.0469"
       style="fill:none;stroke:#000000"
       id="path104" />
  </g>
  <g
     id="g108" />
  <g
     id="g110" />
  <g
     id="g112" />
  <g
     id="g114" />
  <g
     id="g116" />
  <g
     id="g118" />
  <g
     id="g120" />
  <g
     id="g122" />
  <g
     id="g124" />
</svg>
