<?xml version="1.0" encoding="UTF-8" standalone="no"?>
<svg
   viewBox="0 0 793.7007874015749 1122.5196850393702"
   width="793.7007874015749"
   height="1122.5196850393702"
   version="1.1"
   id="svg607"
   xmlns="http://www.w3.org/2000/svg"
   xmlns:svg="http://www.w3.org/2000/svg">
  <desc
     id="desc483">3_key_d1_cutout_14.5.dxf - scale = 1.000000, origin = (0.000000, 0.000000), method = manual</desc>
  <defs
     id="defs497">
    <marker
       id="DistanceX"
       orient="auto"
       refX="0.0"
       refY="0.0"
       style="overflow:visible">
      <path
         d="M 3,-3 L -3,3 M 0,-5 L  0,5"
         style="stroke:#000000; stroke-width:0.5"
         id="path485" />
    </marker>
    <pattern
       id="Hatch"
       patternUnits="userSpaceOnUse"
       width="8"
       height="8"
       x="0"
       y="0">
      <path
         d="M8 4 l-4,4"
         stroke="#000000"
         stroke-width="0.25"
         linecap="square"
         id="path488" />
      <path
         d="M6 2 l-4,4"
         stroke="#000000"
         stroke-width="0.25"
         linecap="square"
         id="path490" />
      <path
         d="M4 0 l-4,4"
         stroke="#000000"
         stroke-width="0.25"
         linecap="square"
         id="path492" />
    </pattern>
    <symbol
       id="*MODEL_SPACE" />
    <symbol
       id="*PAPER_SPACE" />
  </defs>
  <g
     id="g499" />
  <g
     id="g501" />
  <g
     id="g503" />
  <g
     id="g505" />
  <g
     id="g507" />
  <g
     id="g509" />
  <g
     id="g511" />
  <g
     id="g513" />
  <g
     id="g515" />
  <g
     id="g517" />
  <g
     id="g519" />
  <g
     id="g521" />
  <g
     id="g523" />
  <g
     id="g525" />
  <g
     id="g527" />
  <g
     id="g529" />
  <g
     id="g531" />
  <g
     id="g533" />
  <g
     id="g535" />
  <g
     id="g537" />
  <g
     id="g539" />
  <g
     id="g541" />
  <g
     id="g543" />
  <g
     id="g545" />
  <g
     id="g547" />
  <g
     id="g549" />
  <g
     id="g551" />
  <g
     id="g553" />
  <g
     id="g555" />
  <g
     id="g557" />
  <g
     id="g587">
    <path
       d="m 436.4776,701.1644 a 5.669291,5.669291 0 0 1 5.6693,5.6693"
       style="fill:none;stroke:#000000"
       id="path559" />
    <path
       style="fill:none;stroke:#000000"
       d="m 442.14685,774.8605 v -68.03"
       id="path561" />
    <path
       d="m 442.1469,774.8652 a 5.669291,5.669291 0 0 1 -5.6693,5.6693"
       style="fill:none;stroke:#000000"
       id="path563" />
    <path
       style="fill:none;stroke:#000000"
       d="m 381.29645,780.5306 h 55.1811"
       id="path565" />
    <path
       d="m 381.2965,780.5345 a 5.669291,5.669291 0 0 1 -5.6693,-5.6693"
       style="fill:none;stroke:#000000"
       id="path567" />
    <path
       style="fill:none;stroke:#000000"
       d="m 375.62725,774.8605 v -68.03"
       id="path569" />
    <path
       d="m 375.6272,706.8337 a 5.669291,5.669291 0 0 1 5.6693,-5.6693"
       style="fill:none;stroke:#000000"
       id="path571" />
    <path
       style="fill:none;stroke:#000000"
       d="m 381.29645,701.1605 h 4.9134"
       id="path573" />
    <path
       style="fill:none;stroke:#000000"
       d="M 386.20986,701.1605 V 385.57048"
       id="path575" />
    <path
       d="m 386.20988,385.57388 a 5.669291,5.669291 0 0 1 5.66929,-5.6693"
       style="fill:none;stroke:#000000"
       id="path577" />
    <path
       style="fill:none;stroke:#000000"
       d="m 419.46975,379.90049 h -27.5906"
       id="path579" />
    <path
       d="m 419.46973,379.90458 a 5.669291,5.669291 0 0 1 5.66929,5.6693"
       style="fill:none;stroke:#000000"
       id="path581" />
    <path
       style="fill:none;stroke:#000000"
       d="M 425.13906,385.57049 V 701.1605"
       id="path583" />
    <path
       style="fill:none;stroke:#000000"
       d="m 425.1391,701.1605 h 11.3384"
       id="path585" />
  </g>
  <g
     id="g589" />
  <g
     id="g591" />
  <g
     id="g593" />
  <g
     id="g595" />
  <g
     id="g597" />
  <g
     id="g599" />
  <g
     id="g601" />
  <g
     id="g603" />
  <g
     id="g605" />
</svg>
