<?xml version="1.0" encoding="UTF-8" standalone="no"?>
<svg
   viewBox="0 0 793.7007874015749 1122.5196850393702"
   width="793.7007874015749"
   height="1122.5196850393702"
   version="1.1"
   id="svg126"
   xmlns="http://www.w3.org/2000/svg"
   xmlns:svg="http://www.w3.org/2000/svg">
  <desc
     id="desc2">49_key_c5_cutout_14.5.dxf - scale = 1.000000, origin = (0.000000, 0.000000), method = manual</desc>
  <defs
     id="defs16">
    <marker
       id="DistanceX"
       orient="auto"
       refX="0.0"
       refY="0.0"
       style="overflow:visible">
      <path
         d="M 3,-3 L -3,3 M 0,-5 L  0,5"
         style="stroke:#000000; stroke-width:0.5"
         id="path4" />
    </marker>
    <pattern
       id="Hatch"
       patternUnits="userSpaceOnUse"
       width="8"
       height="8"
       x="0"
       y="0">
      <path
         d="M8 4 l-4,4"
         stroke="#000000"
         stroke-width="0.25"
         linecap="square"
         id="path7" />
      <path
         d="M6 2 l-4,4"
         stroke="#000000"
         stroke-width="0.25"
         linecap="square"
         id="path9" />
      <path
         d="M4 0 l-4,4"
         stroke="#000000"
         stroke-width="0.25"
         linecap="square"
         id="path11" />
    </pattern>
    <symbol
       id="*MODEL_SPACE" />
    <symbol
       id="*PAPER_SPACE" />
  </defs>
  <g
     id="g18" />
  <g
     id="g20" />
  <g
     id="g22" />
  <g
     id="g24" />
  <g
     id="g26" />
  <g
     id="g28" />
  <g
     id="g30" />
  <g
     id="g32" />
  <g
     id="g34" />
  <g
     id="g36" />
  <g
     id="g38" />
  <g
     id="g40" />
  <g
     id="g42" />
  <g
     id="g44" />
  <g
     id="g46" />
  <g
     id="g48" />
  <g
     id="g50" />
  <g
     id="g52" />
  <g
     id="g54" />
  <g
     id="g56" />
  <g
     id="g58" />
  <g
     id="g60" />
  <g
     id="g62" />
  <g
     id="g64" />
  <g
     id="g66" />
  <g
     id="g68" />
  <g
     id="g70" />
  <g
     id="g72" />
  <g
     id="g74" />
  <g
     id="g76" />
  <g
     id="g106">
    <path
       d="m 341.7622,615.06412 a 5.669291,5.669291 0 0 1 -0.72755,0.0469"
       style="fill:none;stroke:#000000"
       id="path78" />
    <path
       style="fill:none;stroke:#000000"
       d="m 273.00319,615.10714 h 68.031"
       id="path80" />
    <path
       d="m 273.00315,615.111 a 5.669291,5.669291 0 0 1 -5.66929,-5.66929"
       style="fill:none;stroke:#000000"
       id="path82" />
    <path
       style="fill:none;stroke:#000000"
       d="m 267.33419,554.25714 v 55.18"
       id="path84" />
    <path
       d="m 267.33386,554.26061 a 5.669291,5.669291 0 0 1 5.66929,-5.66929"
       style="fill:none;stroke:#000000"
       id="path86" />
    <path
       style="fill:none;stroke:#000000"
       d="m 273.00319,548.58714 h 68.031"
       id="path88" />
    <path
       d="m 341.03465,548.59132 a 5.669291,5.669291 0 0 1 5.66929,5.66929"
       style="fill:none;stroke:#000000"
       id="path90" />
    <path
       style="fill:none;stroke:#000000"
       d="m 346.70419,554.25714 v 21.55"
       id="path92" />
    <path
       style="fill:none;stroke:#000000"
       d="m 346.70419,575.80714 h 243.779"
       id="path94" />
    <path
       d="m 590.48347,575.80392 a 5.669291,5.669291 0 0 1 5.66929,5.66929"
       style="fill:none;stroke:#000000"
       id="path96" />
    <path
       style="fill:none;stroke:#000000"
       d="m 596.15319,609.43714 v -27.96"
       id="path98" />
    <path
       d="m 596.15276,609.44171 a 5.669291,5.669291 0 0 1 -5.66929,5.66929"
       style="fill:none;stroke:#000000"
       id="path100" />
    <path
       style="fill:none;stroke:#000000"
       d="m 341.76219,615.10714 h 248.721"
       id="path102" />
    <path
       style="fill:none;stroke:#000000"
       d="m 341.76219,615.10714 v -0.04"
       id="path104" />
  </g>
  <g
     id="g108" />
  <g
     id="g110" />
  <g
     id="g112" />
  <g
     id="g114" />
  <g
     id="g116" />
  <g
     id="g118" />
  <g
     id="g120" />
  <g
     id="g122" />
  <g
     id="g124" />
</svg>
