0
SECTION
2
HEADER
9
$INSUNITS
70
4
9
$ACADVER
1
AC1014
9
$HANDSEED
5
FFFF
0
ENDSEC
0
SECTION
2
TABLES
0
TABLE
2
VPORT
5
8
100
AcDbSymbolTable
0
ENDTAB
0
TABLE
2
LTYPE
5
5
100
AcDbSymbolTable
0
LTYPE
5
14
100
AcDbSymbolTableRecord
100
AcDbLinetypeTableRecord
2
BYBLOCK
70
0
0
LTYPE
5
15
100
AcDbSymbolTableRecord
100
AcDbLinetypeTableRecord
2
BYLAYER
70
0
0
ENDTAB
0
TABLE
2
LAYER
5
2
100
AcDbSymbolTable
70
2
0
LAYER
5
50
100
AcDbSymbolTableRecord
100
AcDbLayerTableRecord
2
0
70
0
6
CONTINUOUS
0
ENDTAB
0
TABLE
2
STYLE
5
3
100
AcDbSymbolTable
70
1
0
STYLE
5
11
100
AcDbSymbolTableRecord
100
AcDbTextStyleTableRecord
2
STANDARD
70
0
0
ENDTAB
0
TABLE
2
VIEW
5
6
100
AcDbSymbolTable
70
0
0
ENDTAB
0
TABLE
2
UCS
5
7
100
AcDbSymbolTable
70
0
0
ENDTAB
0
TABLE
2
APPID
5
9
100
AcDbSymbolTable
70
2
0
APPID
5
12
100
AcDbSymbolTableRecord
100
AcDbRegAppTableRecord
2
ACAD
70
0
0
ENDTAB
0
TABLE
2
DIMSTYLE
5
A
100
AcDbSymbolTable
70
1
0
ENDTAB
0
TABLE
2
BLOCK_RECORD
5
1
100
AcDbSymbolTable
70
1
0
BLOCK_RECORD
5
1F
100
AcDbSymbolTableRecord
100
AcDbBlockTableRecord
2
*MODEL_SPACE
0
BLOCK_RECORD
5
1B
100
AcDbSymbolTableRecord
100
AcDbBlockTableRecord
2
*PAPER_SPACE
0
ENDTAB
0
ENDSEC
0
SECTION
2
BLOCKS
0
BLOCK
5
20
100
AcDbEntity
100
AcDbBlockBegin
2
*MODEL_SPACE
0
ENDBLK
5
21
100
AcDbEntity
100
AcDbBlockEnd
0
BLOCK
5
1C
100
AcDbEntity
100
AcDbBlockBegin
2
*PAPER_SPACE
0
ENDBLK
5
1D
100
AcDbEntity
100
AcDbBlockEnd
0
ENDSEC
0
SECTION
2
ENTITIES
0
LWPOLYLINE
5
100
100
AcDbEntity
8
0
100
AcDbPolyline
90
3
70
1
43
0.0
10
250
20
0
10
0
20
0
10
250
20
25
0
LINE
5
101
100
AcDbEntity
8
0
100
AcDbLine
10
50
20
60
30
0
11
100
21
20
31
0
0
LINE
5
102
100
AcDbEntity
8
0
100
AcDbLine
10
200
20
40
30
0
11
250
21
100
31
0
0
LINE
5
103
100
AcDbEntity
8
0
100
AcDbLine
10
299.74663399634369
20
58.544471669713587
30
0
11
349.74663399634312
21
118.54447166971315
31
0
0
LINE
5
104
100
AcDbEntity
8
0
100
AcDbLine
10
349.74663399634312
20
118.54447166971315
30
0
11
399.74663399634278
21
78.544471669713502
31
0
0
LINE
5
105
100
AcDbEntity
8
0
100
AcDbLine
10
399.74663399634278
20
78.544471669713502
30
0
11
449.74663399634238
21
138.54447166971306
31
0
0
LINE
5
106
100
AcDbEntity
8
0
100
AcDbLine
10
449.74663399634238
20
138.54447166971306
30
0
11
499.74663399634198
21
98.544471669713403
31
0
0
LINE
5
107
100
AcDbEntity
8
0
100
AcDbLine
10
499.74663399634198
20
98.544471669713403
30
0
11
549.74663399634153
21
158.54447166971298
31
0
0
LINE
5
108
100
AcDbEntity
8
0
100
AcDbLine
10
549.74663399634153
20
158.54447166971298
30
0
11
599.49326799268488
21
117.08894333942695
31
0
0
LINE
5
109
100
AcDbEntity
8
0
100
AcDbLine
10
0
20
0
30
0
11
50
21
60
31
0
0
LINE
5
110
100
AcDbEntity
8
0
100
AcDbLine
10
100
20
20
30
0
11
150
21
80
31
0
0
LINE
5
111
100
AcDbEntity
8
0
100
AcDbLine
10
150
20
80
30
0
11
200
21
40
31
0
0
LINE
5
112
100
AcDbEntity
8
0
100
AcDbLine
10
250
20
100
30
0
11
299.74663399634369
21
58.544471669713587
31
0
0
LINE
5
113
100
AcDbEntity
8
0
100
AcDbLine
10
599.49326799268488
20
117.08894333942695
30
0
11
649.4932679926842
21
177.08894333942627
31
0
0
LINE
5
114
100
AcDbEntity
8
0
100
AcDbLine
10
649.4932679926842
20
177.08894333942627
30
0
11
699.49326799268363
21
137.08894333942678
31
0
0
LINE
5
115
100
AcDbEntity
8
0
100
AcDbLine
10
699.49326799268363
20
137.08894333942678
30
0
11
749.49326799268306
21
197.08894333942607
31
0
0
LINE
5
116
100
AcDbEntity
8
0
100
AcDbLine
10
749.49326799268306
20
197.08894333942607
30
0
11
799.49326799268238
21
157.08894333942655
31
0
0
LINE
5
117
100
AcDbEntity
8
0
100
AcDbLine
10
799.49326799268238
20
157.08894333942655
30
0
11
849.49326799268169
21
217.0889433394259
31
0
0
LINE
5
118
100
AcDbEntity
8
0
100
AcDbLine
10
849.49326799268169
20
217.0889433394259
30
0
11
899.23990198902493
21
175.63341500914004
31
0
0
CIRCLE
5
119
100
AcDbEntity
8
0
100
AcDbCircle
10
50
20
60
30
0
40
1.5000000000000002
0
CIRCLE
5
120
100
AcDbEntity
8
0
100
AcDbCircle
10
100
20
20
30
0
40
0
0
CIRCLE
5
121
100
AcDbEntity
8
0
100
AcDbCircle
10
100
20
20
30
0
40
1.5000000000000002
0
CIRCLE
5
122
100
AcDbEntity
8
0
100
AcDbCircle
10
150
20
80
30
0
40
1.5000000000000002
0
CIRCLE
5
123
100
AcDbEntity
8
0
100
AcDbCircle
10
200
20
40
30
0
40
1.5000000000000002
0
CIRCLE
5
124
100
AcDbEntity
8
0
100
AcDbCircle
10
250
20
100
30
0
40
1.5000000000000002
0
CIRCLE
5
125
100
AcDbEntity
8
0
100
AcDbCircle
10
299.74663399634369
20
58.544471669713587
30
0
40
1.5000000000000002
0
CIRCLE
5
126
100
AcDbEntity
8
0
100
AcDbCircle
10
349.74663399634312
20
118.54447166971315
30
0
40
1.5000000000000002
0
CIRCLE
5
127
100
AcDbEntity
8
0
100
AcDbCircle
10
399.74663399634278
20
78.544471669713502
30
0
40
1.5000000000000002
0
CIRCLE
5
128
100
AcDbEntity
8
0
100
AcDbCircle
10
449.74663399634238
20
138.54447166971306
30
0
40
1.5000000000000002
0
CIRCLE
5
129
100
AcDbEntity
8
0
100
AcDbCircle
10
499.74663399634198
20
98.544471669713403
30
0
40
1.5000000000000002
0
CIRCLE
5
130
100
AcDbEntity
8
0
100
AcDbCircle
10
549.74663399634153
20
158.54447166971298
30
0
40
1.5000000000000002
0
CIRCLE
5
131
100
AcDbEntity
8
0
100
AcDbCircle
10
599.49326799268488
20
117.08894333942695
30
0
40
1.5000000000000002
0
CIRCLE
5
132
100
AcDbEntity
8
0
100
AcDbCircle
10
649.4932679926842
20
177.08894333942627
30
0
40
1.5000000000000002
0
CIRCLE
5
133
100
AcDbEntity
8
0
100
AcDbCircle
10
699.49326799268363
20
137.08894333942678
30
0
40
1.5000000000000002
0
CIRCLE
5
134
100
AcDbEntity
8
0
100
AcDbCircle
10
749.49326799268306
20
197.08894333942607
30
0
40
1.5000000000000002
0
CIRCLE
5
135
100
AcDbEntity
8
0
100
AcDbCircle
10
799.49326799268238
20
157.08894333942655
30
0
40
1.5000000000000002
0
CIRCLE
5
136
100
AcDbEntity
8
0
100
AcDbCircle
10
849.49326799268169
20
217.0889433394259
30
0
40
1.5000000000000002
0
LINE
5
137
100
AcDbEntity
8
0
100
AcDbLine
10
4.6093278607424812
20
-3.8411065506187345
30
0
11
44.569187939132803
21
44.110725543449647
31
0
0
LINE
5
138
100
AcDbEntity
8
0
100
AcDbLine
10
58.498351210650831
20
45.517569641235184
30
0
11
97.017237339623733
21
14.702460738056828
31
0
0
LINE
5
139
100
AcDbEntity
8
0
100
AcDbLine
10
103.98181897538274
20
15.405882786949574
30
0
11
144.5691879391328
21
64.110725543449661
31
0
0
LINE
5
140
100
AcDbEntity
8
0
100
AcDbLine
10
158.49835121065084
20
65.517569641235184
30
0
11
197.01723733962379
21
34.702460738056843
31
0
0
LINE
5
141
100
AcDbEntity
8
0
100
AcDbLine
10
203.98181897538282
20
35.405882786949597
30
0
11
244.36637731347901
21
83.867352792665059
31
0
0
LINE
5
142
100
AcDbEntity
8
0
100
AcDbLine
10
258.45043410609748
20
85.147721591993943
30
0
11
296.67374890848055
21
53.294959256674765
31
0
0
LINE
5
143
100
AcDbEntity
8
0
100
AcDbLine
10
303.71577730478981
20
53.935143656339257
30
0
11
344.31582193547581
21
102.65519721316267
31
0
0
LINE
5
144
100
AcDbEntity
8
0
100
AcDbLine
10
358.24498520699393
20
104.06204131094832
30
0
11
396.76387133596654
21
73.246932407770288
31
0
0
LINE
5
145
100
AcDbEntity
8
0
100
AcDbLine
10
403.72845297172546
20
73.950354456663121
30
0
11
444.31582193547507
21
122.65519721316261
31
0
0
LINE
5
146
100
AcDbEntity
8
0
100
AcDbLine
10
458.24498520699314
20
124.06204131094819
30
0
11
496.76387133596569
21
93.246932407770174
31
0
0
LINE
5
147
100
AcDbEntity
8
0
100
AcDbLine
10
503.72845297172461
20
93.950354456663007
30
0
11
544.11301130982054
21
142.41182446237815
31
0
0
LINE
5
148
100
AcDbEntity
8
0
100
AcDbLine
10
558.19706810243906
20
143.69219326170699
30
0
11
596.42038290482174
21
111.83943092638816
31
0
0
LINE
5
149
100
AcDbEntity
8
0
100
AcDbLine
10
603.46241130113094
20
112.47961532605258
30
0
11
644.06245593181723
21
161.19966888287615
31
0
0
LINE
5
150
100
AcDbEntity
8
0
100
AcDbLine
10
657.99161920333518
20
162.60651298066151
30
0
11
696.51050533230728
21
131.79140407748355
31
0
0
LINE
5
151
100
AcDbEntity
8
0
100
AcDbLine
10
703.47508696806642
20
132.49482612637627
30
0
11
744.06245593181609
21
181.19966888287593
31
0
0
LINE
5
152
100
AcDbEntity
8
0
100
AcDbLine
10
757.99161920333393
20
182.60651298066131
30
0
11
796.51050533230602
21
151.79140407748332
31
0
0
LINE
5
153
100
AcDbEntity
8
0
100
AcDbLine
10
803.47508696806494
20
152.49482612637613
30
0
11
843.8596453061607
21
200.95629613209084
31
0
0
LINE
5
154
100
AcDbEntity
8
0
100
AcDbLine
10
857.94370209877923
20
202.23666493141994
30
0
11
895.39879543840607
21
171.02408714839754
31
0
0
LINE
5
155
100
AcDbEntity
8
0
100
AcDbLine
10
-4.6093278607424812
20
3.8411065506187345
30
0
11
46.018181024617249
21
64.59411721305041
31
0
0
LINE
5
156
100
AcDbEntity
8
0
100
AcDbLine
10
52.982762660376252
20
65.297539261943172
30
0
11
91.501648789349176
21
34.482430358764837
31
0
0
LINE
5
157
100
AcDbEntity
8
0
100
AcDbLine
10
105.43081206086718
20
35.889274456550339
30
0
11
146.01818102461723
21
84.594117213050424
31
0
0
LINE
5
158
100
AcDbEntity
8
0
100
AcDbLine
10
152.98276266037624
20
85.297539261943172
30
0
11
191.50164878934919
21
54.482430358764837
31
0
0
LINE
5
159
100
AcDbEntity
8
0
100
AcDbLine
10
205.43081206086723
20
55.889274456550346
30
0
11
246.03085669155388
21
104.60932801337437
31
0
0
LINE
5
160
100
AcDbEntity
8
0
100
AcDbLine
10
253.07288508786314
20
105.24951241303881
30
0
11
291.29619989024616
21
73.396750077719645
31
0
0
LINE
5
161
100
AcDbEntity
8
0
100
AcDbLine
10
305.3802566828648
20
74.677118877048585
30
0
11
345.76481502096038
21
123.1385888827635
31
0
0
LINE
5
162
100
AcDbEntity
8
0
100
AcDbLine
10
352.72939665671936
20
123.84201093165632
30
0
11
391.24828278569214
21
93.026902028478247
31
0
0
LINE
5
163
100
AcDbEntity
8
0
100
AcDbLine
10
405.17744605721015
20
94.433746126263785
30
0
11
445.76481502095965
21
143.13858888276337
31
0
0
LINE
5
164
100
AcDbEntity
8
0
100
AcDbLine
10
452.72939665671862
20
143.8420109316562
30
0
11
491.24828278569123
21
113.02690202847815
31
0
0
LINE
5
165
100
AcDbEntity
8
0
100
AcDbLine
10
505.17744605720929
20
114.4337461262637
30
0
11
545.77749068789547
21
163.15379968308733
31
0
0
LINE
5
166
100
AcDbEntity
8
0
100
AcDbLine
10
552.81951908420479
20
163.79398408275176
30
0
11
591.04283388658735
21
131.94122174743302
31
0
0
LINE
5
167
100
AcDbEntity
8
0
100
AcDbLine
10
605.12689067920599
20
133.22159054676192
30
0
11
645.51144901730152
21
181.6830605524768
31
0
0
LINE
5
168
100
AcDbEntity
8
0
100
AcDbLine
10
652.47603065306055
20
182.38648260136941
30
0
11
690.99491678203265
21
151.57137369819174
31
0
0
LINE
5
169
100
AcDbEntity
8
0
100
AcDbLine
10
704.92408005355082
20
152.97821779597709
30
0
11
745.51144901730038
21
201.68306055247658
31
0
0
LINE
5
170
100
AcDbEntity
8
0
100
AcDbLine
10
752.47603065305941
20
202.38648260136921
30
0
11
790.99491678203162
21
171.57137369819137
31
0
0
LINE
5
171
100
AcDbEntity
8
0
100
AcDbLine
10
804.92408005354946
20
172.978217795977
30
0
11
845.52412468423552
21
221.69827135280036
31
0
0
LINE
5
172
100
AcDbEntity
8
0
100
AcDbLine
10
852.56615308054484
20
222.33845575246474
30
0
11
903.08100853964356
21
180.24274286988253
31
0
0
ARC
5
173
100
AcDbEntity
8
0
100
AcDbCircle
10
52.251400735106586
20
37.708881546804854
30
0
40
10.000000000000018
100
AcDbArc
50
51.340191745909991
51
140.19442890773493
0
ARC
5
174
100
AcDbEntity
8
0
100
AcDbCircle
10
97.748599264893414
20
42.291118453195139
30
0
40
9.9999999999999911
100
AcDbArc
50
231.34019174590992
51
320.19442890773485
0
ARC
5
175
100
AcDbEntity
8
0
100
AcDbCircle
10
197.74859926489344
20
62.291118453195146
30
0
40
10.000000000000009
100
AcDbArc
50
231.34019174590989
51
320.19442890773485
0
ARC
5
176
100
AcDbEntity
8
0
100
AcDbCircle
10
297.69804388689101
20
81.078962873693484
30
0
40
10.000000000000082
100
AcDbArc
50
230.19442890773487
51
320.19442890773445
0
ARC
5
177
100
AcDbEntity
8
0
100
AcDbCircle
10
397.49523326123636
20
100.8355901229084
30
0
40
9.9999999999998916
100
AcDbArc
50
231.34019174590946
51
320.1944289077357
0
ARC
5
178
100
AcDbEntity
8
0
100
AcDbCircle
10
497.49523326123551
20
120.83559012290831
30
0
40
9.9999999999998916
100
AcDbArc
50
231.34019174590921
51
320.1944289077357
0
ARC
5
179
100
AcDbEntity
8
0
100
AcDbCircle
10
597.4446778832322
20
139.623434543407
30
0
40
10.000000000000199
100
AcDbArc
50
230.19442890773539
51
320.19442890773365
0
ARC
5
180
100
AcDbEntity
8
0
100
AcDbCircle
10
551.7952241057942
20
136.00998046573358
30
0
40
9.9999999999997495
100
AcDbArc
50
50.194428907733283
51
140.19442890773547
0
ARC
5
181
100
AcDbEntity
8
0
100
AcDbCircle
10
451.99803473144891
20
116.25335321651768
30
0
40
10.000000000000169
100
AcDbArc
50
51.340191745910722
51
140.19442890773453
0
ARC
5
182
100
AcDbEntity
8
0
100
AcDbCircle
10
351.99803473144976
20
96.253353216517667
30
0
40
10.000000000000234
100
AcDbArc
50
51.340191745911483
51
140.19442890773468
0
ARC
5
183
100
AcDbEntity
8
0
100
AcDbCircle
10
252.04859010945268
20
77.465508796020373
30
0
40
9.9999999999998632
100
AcDbArc
50
50.194428907734107
51
140.19442890773496
0
ARC
5
184
100
AcDbEntity
8
0
100
AcDbCircle
10
152.25140073510661
20
57.70888154680479
30
0
40
10.00000000000006
100
AcDbArc
50
51.340191745910317
51
140.1944289077347
0
ARC
5
185
100
AcDbEntity
8
0
100
AcDbCircle
10
651.74466872779078
20
154.79782488623204
30
0
40
9.9999999999994529
100
AcDbArc
50
51.340191745906246
51
140.19442890773709
0
ARC
5
186
100
AcDbEntity
8
0
100
AcDbCircle
10
697.24186725757704
20
159.38006179262277
30
0
40
10.000000000000659
100
AcDbArc
50
231.34019174591185
51
320.19442890773098
0
ARC
5
187
100
AcDbEntity
8
0
100
AcDbCircle
10
751.74466872778964
20
174.79782488623175
30
0
40
9.9999999999994067
100
AcDbArc
50
51.340191745907056
51
140.19442890773681
0
ARC
5
188
100
AcDbEntity
8
0
100
AcDbCircle
10
797.24186725757579
20
179.38006179262158
30
0
40
9.9999999999998437
100
AcDbArc
50
231.34019174590992
51
320.19442890773547
0
ARC
5
189
100
AcDbEntity
8
0
100
AcDbCircle
10
851.54185810213448
20
194.55445213544581
30
0
40
10.000000000000263
100
AcDbArc
50
50.194428907736395
51
140.19442890773391
0
ARC
5
190
100
AcDbEntity
8
0
100
AcDbCircle
10
849.36523108222229
20
218.49734935447805
30
0
40
4.9999999999998765
100
AcDbArc
50
50.194428907732174
51
140.19442890773482
0
ARC
5
191
100
AcDbEntity
8
0
100
AcDbCircle
10
799.63398057007805
20
155.69574812469838
30
0
40
4.9999999999998943
100
AcDbArc
50
231.34019174591015
51
320.19442890773615
0
ARC
5
192
100
AcDbEntity
8
0
100
AcDbCircle
10
749.35255541528716
20
198.48213855415435
30
0
40
4.999999999999817
100
AcDbArc
50
51.340191745906651
51
140.19442890773556
0
ARC
5
193
100
AcDbEntity
8
0
100
AcDbCircle
10
699.63398057007953
20
135.69574812469878
30
0
40
5.0000000000001226
100
AcDbArc
50
231.34019174590929
51
320.19442890773394
0
ARC
5
194
100
AcDbEntity
8
0
100
AcDbCircle
10
649.35255541528829
20
178.48213855415455
30
0
40
4.999999999999817
100
AcDbArc
50
51.340191745906651
51
140.19442890773533
0
ARC
5
195
100
AcDbEntity
8
0
100
AcDbCircle
10
599.62130490314416
20
115.68053732437512
30
0
40
5.0000000000000959
100
AcDbArc
50
230.19442890773516
51
320.19442890773286
0
ARC
5
196
100
AcDbEntity
8
0
100
AcDbCircle
10
549.61859708588224
20
159.95287768476493
30
0
40
4.9999999999999858
100
AcDbArc
50
50.194428907733226
51
140.19442890773405
0
ARC
5
197
100
AcDbEntity
8
0
100
AcDbCircle
10
499.88734657373777
20
97.151276454985279
30
0
40
4.9999999999999218
100
AcDbArc
50
231.34019174590992
51
320.19442890773558
0
ARC
5
198
100
AcDbEntity
8
0
100
AcDbCircle
10
449.60592141894659
20
139.93766688444094
30
0
40
5.0000000000000462
100
AcDbArc
50
51.34019174591154
51
140.19442890773504
0
ARC
5
199
100
AcDbEntity
8
0
100
AcDbCircle
10
399.88734657373863
20
77.151276454985378
30
0
40
4.9999999999999085
100
AcDbArc
50
231.34019174590981
51
320.19442890773576
0
ARC
5
200
100
AcDbEntity
8
0
100
AcDbCircle
10
349.60592141894728
20
119.93766688444104
30
0
40
5.0000000000000613
100
AcDbArc
50
51.34019174591112
51
140.19442890773439
0
ARC
5
201
100
AcDbEntity
8
0
100
AcDbCircle
10
299.87467090680292
20
57.136065654661593
30
0
40
4.9999999999999547
100
AcDbArc
50
230.19442890773465
51
320.19442890773541
0
ARC
5
202
100
AcDbEntity
8
0
100
AcDbCircle
10
249.87196308954071
20
101.40840601505192
30
0
40
5.0000000000000178
100
AcDbArc
50
50.19442890773464
51
140.19442890773411
0
ARC
5
203
100
AcDbEntity
8
0
100
AcDbCircle
10
200.1407125773959
20
38.606804785272018
30
0
40
5.0000000000000258
100
AcDbArc
50
231.34019174591015
51
320.19442890773496
0
ARC
5
204
100
AcDbEntity
8
0
100
AcDbCircle
10
149.85928742260413
20
81.393195214728053
30
0
40
4.9999999999999805
100
AcDbArc
50
51.340191745909756
51
140.19442890773516
0
ARC
5
205
100
AcDbEntity
8
0
100
AcDbCircle
10
100.14071257739586
20
18.606804785271986
30
0
40
5.000000000000008
100
AcDbArc
50
231.34019174590992
51
320.19442890773468
0
ARC
5
206
100
AcDbEntity
8
0
100
AcDbCircle
10
49.859287422604133
20
61.39319521472806
30
0
40
4.999999999999968
100
AcDbArc
50
51.34019174590965
51
140.19442890773527
0
ENDSEC
0
SECTION
2
OBJECTS
0
DICTIONARY
5
C
100
AcDbDictionary
3
ACAD_GROUP
350
D
3
ACAD_MLINESTYLE
350
17
0
DICTIONARY
5
D
100
AcDbDictionary
0
DICTIONARY
5
1A
330
C
100
AcDbDictionary
0
DICTIONARY
5
17
100
AcDbDictionary
0
ENDSEC
0
EOF
